HIERARCHY
ROOT joint_Root
{
	OFFSET 0.0 0.0 0.0
	CHANNELS 6 Xposition Yposition Zposition Zrotation Xrotation Yrotation 
	JOINT Hips
	{
		OFFSET -17.1583 93.1646 452.98
		CHANNELS 6 Xposition Yposition Zposition Zrotation Xrotation Yrotation 
		JOINT Spine
		{
			OFFSET 15.7357 0.0 0.0
			CHANNELS 6 Xposition Yposition Zposition Zrotation Xrotation Yrotation 
			JOINT Chest
			{
				OFFSET 8.98455 -0.406207 0.0
				CHANNELS 6 Xposition Yposition Zposition Zrotation Xrotation Yrotation 
				JOINT Neck
				{
					OFFSET 16.3773 0.0 0.0
					CHANNELS 6 Xposition Yposition Zposition Zrotation Xrotation Yrotation 
					JOINT Head
					{
						OFFSET 6.45672 0.0 0.0
						CHANNELS 6 Xposition Yposition Zposition Zrotation Xrotation Yrotation 
						End Site
						{
							OFFSET 0.0 0.0 0.0
						}
					}
				}
				JOINT Shoulder_L
				{
					OFFSET 12.9942 -0.242716 4.98039
					CHANNELS 6 Xposition Yposition Zposition Zrotation Xrotation Yrotation 
					JOINT UpperArm_L
					{
						OFFSET 5.34809 0.0 0.0
						CHANNELS 6 Xposition Yposition Zposition Zrotation Xrotation Yrotation 
						JOINT LowerArm_L
						{
							OFFSET 24.3286 1.87007e-05 0.0
							CHANNELS 6 Xposition Yposition Zposition Zrotation Xrotation Yrotation 
							JOINT Hand_L
							{
								OFFSET 22.2916 0.0 0.0
								CHANNELS 6 Xposition Yposition Zposition Zrotation Xrotation Yrotation 
								End Site
								{
									OFFSET 0.0 0.0 0.0
								}
							}
						}
					}
				}
				JOINT Shoulder_R
				{
					OFFSET 12.9945 -0.242716 -4.98039
					CHANNELS 6 Xposition Yposition Zposition Zrotation Xrotation Yrotation 
					JOINT UpperArm_R
					{
						OFFSET -5.34813 0.0 0.0
						CHANNELS 6 Xposition Yposition Zposition Zrotation Xrotation Yrotation 
						JOINT LowerArm_R
						{
							OFFSET -24.3289 0.000322201 0.0
							CHANNELS 6 Xposition Yposition Zposition Zrotation Xrotation Yrotation 
							JOINT Hand_R
							{
								OFFSET -22.2915 -0.000108084 0.0
								CHANNELS 6 Xposition Yposition Zposition Zrotation Xrotation Yrotation 
								End Site
								{
									OFFSET 0.0 0.0 0.0
								}
							}
						}
					}
				}
			}
		}
		JOINT UpperLeg_L
		{
			OFFSET -2.19248 -6.46944 0.0
			CHANNELS 6 Xposition Yposition Zposition Zrotation Xrotation Yrotation 
			JOINT LowerLeg_L
			{
				OFFSET 39.0811 0.0 -1.23785e-05
				CHANNELS 6 Xposition Yposition Zposition Zrotation Xrotation Yrotation 
				JOINT Foot_L
				{
					OFFSET 40.9854 0.0 -1.26872e-05
					CHANNELS 6 Xposition Yposition Zposition Zrotation Xrotation Yrotation 
					JOINT Toes_L
					{
						OFFSET 11.7543 0.0 0.0
						CHANNELS 6 Xposition Yposition Zposition Zrotation Xrotation Yrotation 
						End Site
						{
							OFFSET 0.0 0.0 0.0
						}
					}
				}
			}
		}
		JOINT UpperLeg_R
		{
			OFFSET -2.19251 6.46944 0.0
			CHANNELS 6 Xposition Yposition Zposition Zrotation Xrotation Yrotation 
			JOINT LowerLeg_R
			{
				OFFSET -39.0811 -0.00228153 -0.0401928
				CHANNELS 6 Xposition Yposition Zposition Zrotation Xrotation Yrotation 
				JOINT Foot_R
				{
					OFFSET -40.9854 0.0 0.0
					CHANNELS 6 Xposition Yposition Zposition Zrotation Xrotation Yrotation 
					JOINT Toes_R
					{
						OFFSET -11.7543 0.0 0.0
						CHANNELS 6 Xposition Yposition Zposition Zrotation Xrotation Yrotation 
						End Site
						{
							OFFSET 0.0 0.0 0.0
						}
					}
				}
			}
		}
	}
}
MOTION
Frames:	9
Frame Time:	0.0333333
0.000000 0.000000 0.000000 0.000000 0.000000 -0.000000 -1.092520 93.405900 -3.741300 87.800800 0.062056 0.786831 15.735700 0.000005 -0.000001 83.890000 87.112300 -82.384100 8.984550 -0.406207 -0.000000 -2.011910 -0.743012 2.998340 16.377300 -0.000001 -0.000001 0.029406 2.405430 -1.152950 6.456720 -0.000001 -0.000000 -0.870834 2.654640 -0.675796 12.994200 -0.242716 4.980390 -92.524200 7.879950 -72.174500 5.348090 -0.000007 -0.000001 -71.463200 19.927400 -5.741990 24.328600 0.000019 0.000005 6.945900 29.297300 -13.980100 22.291600 -0.000001 0.000005 -13.053300 5.145270 4.055980 12.994500 -0.242716 -4.980390 88.892500 3.958470 -74.355900 -5.348130 -0.000001 -0.000004 -71.285200 22.656000 -7.431660 -24.328900 0.000322 -0.000009 0.268937 1.915880 -8.022780 -22.291500 -0.000108 -0.000004 -10.156400 5.156270 3.793120 -2.192480 -6.469440 -0.000000 -172.949000 -6.601340 -3.989820 39.081100 -0.000007 -0.000012 0.016657 -0.058298 15.945700 40.985400 -0.000006 -0.000013 -1.653970 13.136100 -67.235500 11.754300 -0.000000 0.000003 -0.000124 0.169682 -9.694500 -2.192510 6.469440 -0.000001 178.660000 7.554610 177.912000 -39.081100 -0.002282 -0.040193 0.037008 -0.149357 12.705400 -40.985400 0.000008 0.000006 -3.964580 4.877550 -66.401900 -11.754300 -0.000006 -0.000006 -0.007591 0.252328 -6.326460
0.000000 0.000000 0.000000 0.000000 0.000000 -0.000000 -1.056330 93.430100 -3.514460 87.842900 0.143707 0.260236 15.735700 0.000005 -0.000001 83.778900 87.336300 -82.320900 8.984550 -0.406207 -0.000000 -2.459440 -0.707158 2.900810 16.377300 -0.000001 -0.000001 -0.939955 2.301720 -1.085520 6.456720 -0.000001 -0.000000 -1.460710 2.587730 -0.922671 12.994200 -0.242716 4.980390 -92.464900 7.698110 -72.185100 5.348090 -0.000007 -0.000001 -68.375800 16.323700 -9.182520 24.328600 0.000019 0.000005 5.600140 33.582500 -10.052200 22.291600 -0.000001 0.000005 -19.341600 5.178530 3.252070 12.994500 -0.242716 -4.980390 89.027100 3.443070 -74.211100 -5.348130 -0.000001 -0.000004 -69.307800 20.159000 -9.934540 -24.328900 0.000322 -0.000009 0.403046 4.220020 -5.474670 -22.291500 -0.000108 -0.000004 -13.374900 5.134630 4.308640 -2.192480 -6.469440 -0.000000 -173.055000 -6.684140 -4.177140 39.081100 -0.000007 -0.000012 0.017547 -0.062974 15.570600 40.985400 -0.000006 -0.000013 -1.641550 13.229200 -67.279800 11.754300 -0.000000 0.000003 -0.000191 0.170780 -9.649900 -2.192510 6.469440 -0.000001 178.588000 7.872060 177.736000 -39.081100 -0.002282 -0.040193 0.033654 -0.138717 12.329000 -40.985400 0.000008 0.000006 -4.265400 5.180330 -66.319900 -11.754300 -0.000006 -0.000006 -0.007568 0.252138 -6.334230
0.000000 0.000000 0.000000 0.000000 0.000000 -0.000000 -1.003300 93.443100 -3.202870 87.864300 0.173915 -0.236819 15.735700 0.000005 -0.000001 83.508100 87.653200 -82.109700 8.984550 -0.406207 -0.000000 -3.093060 -0.662894 2.779340 16.377300 -0.000001 -0.000001 -1.767930 2.099630 -0.976315 6.456720 -0.000001 -0.000000 -1.999760 2.528650 -1.274450 12.994200 -0.242716 4.980390 -92.347300 7.299650 -72.119900 5.348090 -0.000007 -0.000001 -64.386400 10.901200 -12.952900 24.328600 0.000019 0.000005 3.687740 37.378100 -6.060290 22.291600 -0.000001 0.000005 -23.249700 5.168790 3.490260 12.994500 -0.242716 -4.980390 89.216100 2.735620 -74.002800 -5.348130 -0.000001 -0.000004 -66.316900 16.795300 -12.949200 -24.328900 0.000322 -0.000009 0.384728 6.864610 -3.224260 -22.291500 -0.000108 -0.000004 -16.634200 5.105300 4.992150 -2.192480 -6.469440 -0.000000 -173.132000 -6.907020 -4.305540 39.081100 -0.000007 -0.000012 0.017705 -0.064880 15.264400 40.985400 -0.000006 -0.000013 -1.594390 13.415500 -67.384500 11.754300 -0.000000 0.000003 -0.000329 0.172998 -9.559800 -2.192510 6.469440 -0.000001 178.531000 8.126060 177.659000 -39.081100 -0.002282 -0.040193 0.030496 -0.128658 11.920400 -40.985400 0.000008 0.000006 -4.477830 5.408200 -66.269600 -11.754300 -0.000006 -0.000006 -0.008008 0.255765 -6.186130
0.000000 0.000000 0.000000 0.000000 0.000000 -0.000000 -0.927468 93.452200 -2.769910 87.952500 0.189173 -0.719977 15.735700 0.000005 -0.000001 82.103300 88.041600 -80.783700 8.984550 -0.406207 -0.000000 -3.877380 -0.671785 2.617500 16.377300 -0.000001 -0.000001 -2.664230 1.988910 -0.999316 6.456720 -0.000001 -0.000000 -2.378450 2.470350 -1.624780 12.994200 -0.242716 4.980390 -92.173000 6.754450 -72.119500 5.348090 -0.000007 -0.000001 -59.479500 4.573750 -16.360600 24.328600 0.000019 0.000005 2.507740 39.627200 -3.928170 22.291600 -0.000001 0.000005 -23.447500 5.126040 4.510270 12.994500 -0.242716 -4.980390 89.395600 2.073000 -73.742300 -5.348130 -0.000001 -0.000004 -62.155900 12.059700 -16.569700 -24.328900 0.000322 -0.000009 0.154080 8.907950 -1.001690 -22.291500 -0.000108 -0.000004 -18.911300 5.084270 5.471900 -2.192480 -6.469440 -0.000000 -173.281000 -7.275570 -4.272580 39.081100 -0.000007 -0.000012 0.016285 -0.061527 14.825800 40.985400 -0.000006 -0.000013 -1.514610 13.725000 -67.468000 11.754300 -0.000000 0.000003 -0.000832 0.180624 -9.249970 -2.192510 6.469440 -0.000001 178.363000 8.352020 177.687000 -39.081100 -0.002282 -0.040193 0.027405 -0.118244 11.505300 -40.985400 0.000008 0.000006 -4.766120 5.681230 -66.299300 -11.754300 -0.000006 -0.000006 -0.007891 0.254807 -6.225230
0.000000 0.000000 0.000000 0.000000 0.000000 -0.000000 -0.807265 93.416200 -2.163540 88.006200 0.141997 -0.959675 15.735700 0.000005 -0.000001 79.693500 88.383300 -78.422300 8.984550 -0.406207 -0.000000 -4.575800 -0.714825 2.515470 16.377300 -0.000001 -0.000001 -3.594180 1.866560 -0.986376 6.456720 -0.000001 -0.000000 -2.841870 2.399610 -2.137750 12.994200 -0.242716 4.980390 -92.025500 6.240520 -71.977400 5.348090 -0.000007 -0.000001 -53.318800 -0.989951 -19.514400 24.328600 0.000019 0.000005 2.426240 39.312800 -3.826080 22.291600 -0.000001 0.000005 -20.283900 5.086160 5.428490 12.994500 -0.242716 -4.980390 89.618800 1.291100 -73.550800 -5.348130 -0.000001 -0.000004 -57.524000 5.450600 -20.559200 -24.328900 0.000322 -0.000009 -0.001032 9.382190 0.000037 -22.291500 -0.000108 -0.000004 -18.633500 5.058970 6.038740 -2.192480 -6.469440 -0.000000 -173.399000 -7.525890 -4.049910 39.081100 -0.000007 -0.000012 0.014518 -0.055301 14.710000 40.985400 -0.000006 -0.000013 -1.361000 13.863300 -67.582500 11.754300 -0.000000 0.000003 -0.001037 0.183561 -9.130640 -2.192510 6.469440 -0.000001 178.169000 8.688090 177.924000 -39.081100 -0.002282 -0.040193 0.025826 -0.111833 11.370200 -40.985400 0.000008 0.000006 -4.950910 6.051490 -66.461800 -11.754300 -0.000006 -0.000006 -0.008141 0.256849 -6.141830
0.000000 0.000000 0.000000 0.000000 0.000000 -0.000000 -0.655044 93.369700 -1.361700 88.074600 0.093663 -0.916653 15.735700 0.000005 -0.000001 78.859100 88.695800 -77.700700 8.984550 -0.406207 -0.000000 -5.199510 -0.634421 2.290140 16.377300 -0.000001 -0.000001 -4.628840 1.595030 -0.915663 6.456720 -0.000001 -0.000000 -3.256290 1.912020 -2.048260 12.994200 -0.242716 4.980390 -91.710800 5.210050 -71.793200 5.348090 -0.000007 -0.000001 -47.694200 -7.591670 -22.904000 24.328600 0.000019 0.000005 2.371410 37.281100 -3.911050 22.291600 -0.000001 0.000005 -14.114000 4.999960 7.317410 12.994500 -0.242716 -4.980390 89.836600 0.549251 -73.429300 -5.348130 -0.000001 -0.000004 -53.157100 -3.250260 -24.246500 -24.328900 0.000322 -0.000009 -0.001030 8.523560 0.000033 -22.291500 -0.000108 -0.000004 -15.719300 5.035960 6.545000 -2.192480 -6.469440 -0.000000 -173.491000 -7.810820 -3.349190 39.081100 -0.000007 -0.000012 0.010948 -0.042422 14.471800 40.985400 -0.000006 -0.000013 -1.187460 14.016700 -67.720300 11.754300 -0.000000 0.000003 -0.001898 0.195063 -8.663030 -2.192510 6.469440 -0.000001 177.833000 9.089350 178.690000 -39.081100 -0.002282 -0.040193 0.021285 -0.091932 11.046700 -40.985400 0.000008 0.000006 -5.257630 6.572680 -66.615600 -11.754300 -0.000006 -0.000006 -0.008793 0.262050 -5.929350
0.000000 0.000000 0.000000 0.000000 0.000000 -0.000000 -0.474756 93.280700 -0.401750 88.196500 0.176826 -0.686704 15.735700 0.000005 -0.000001 79.673100 89.029200 -78.712700 8.984550 -0.406207 -0.000000 -5.851300 -0.461634 1.899450 16.377300 -0.000001 -0.000001 -5.517460 1.169870 -0.856260 6.456720 -0.000001 -0.000000 -3.763480 1.042690 -1.365550 12.994200 -0.242716 4.980390 -91.313800 3.847640 -71.130900 5.348090 -0.000007 -0.000001 -43.149000 -14.862400 -27.532400 24.328600 0.000019 0.000005 2.281540 35.878600 -3.888940 22.291600 -0.000001 0.000005 -8.308320 4.870130 9.965100 12.994500 -0.242716 -4.980390 90.114200 -0.379863 -73.265900 -5.348130 -0.000001 -0.000004 -49.714700 -13.058700 -27.799000 -24.328900 0.000322 -0.000009 -0.001032 6.454820 0.000022 -22.291500 -0.000108 -0.000004 -10.789600 5.028880 6.698940 -2.192480 -6.469440 -0.000000 -173.623000 -7.888750 -2.461380 39.081100 -0.000007 -0.000012 0.008414 -0.032745 14.410900 40.985400 -0.000006 -0.000013 -0.966536 14.084900 -67.995600 11.754300 -0.000000 0.000003 -0.002944 0.207597 -8.153150 -2.192510 6.469440 -0.000001 177.393000 9.634270 179.662000 -39.081100 -0.002282 -0.040193 0.018177 -0.076733 10.946000 -40.985400 0.000008 0.000006 -5.360600 7.030890 -66.946900 -11.754300 -0.000006 -0.000006 -0.010091 0.271986 -5.523130
0.000000 0.000000 0.000000 0.000000 0.000000 -0.000000 -0.280363 93.186400 0.678745 88.354800 0.448269 -0.334395 15.735700 0.000005 -0.000001 83.549700 89.420200 -82.760000 8.984550 -0.406207 -0.000000 -6.611820 -0.229022 1.568560 16.377300 -0.000001 -0.000001 -6.069470 0.622547 -0.710994 6.456720 -0.000001 -0.000000 -3.967350 0.240719 -1.357080 12.994200 -0.242716 4.980390 -90.837800 2.381560 -70.612600 5.348090 -0.000007 -0.000001 -40.142900 -22.764600 -33.143000 24.328600 0.000019 0.000005 2.046950 35.812900 -3.495270 22.291600 -0.000001 0.000005 -4.241160 4.752990 12.192200 12.994500 -0.242716 -4.980390 90.519300 -1.665320 -72.679100 -5.348130 -0.000001 -0.000004 -46.737800 -21.867000 -31.836200 -24.328900 0.000322 -0.000009 -0.001036 5.953820 0.000020 -22.291500 -0.000108 -0.000004 -6.271620 5.035550 6.554530 -2.192480 -6.469440 -0.000000 -173.780000 -7.726930 -1.263770 39.081100 -0.000007 -0.000012 0.009257 -0.036758 14.136000 40.985400 -0.000006 -0.000013 -0.753370 14.122600 -68.347400 11.754300 -0.000000 0.000003 -0.003603 0.214878 -7.856760 -2.192510 6.469440 -0.000001 176.817000 10.085600 -179.067000 -39.081100 -0.002282 -0.040193 0.011479 -0.043153 10.683400 -40.985400 0.000008 0.000006 -6.098180 7.357380 -67.048100 -11.754300 -0.000006 -0.000006 -0.011223 0.280226 -5.185960
0.000000 0.000000 0.000000 0.000000 0.000000 -0.000000 -0.068521 93.080200 1.805700 88.598100 0.805902 -0.032758 15.735700 0.000005 -0.000001 86.395900 89.860500 -85.808000 8.984550 -0.406207 -0.000000 -7.486740 -0.095692 1.171880 16.377300 -0.000001 -0.000001 -6.281250 0.193361 -0.730630 6.456720 -0.000001 -0.000000 -3.917700 -0.401665 -1.256200 12.994200 -0.242716 4.980390 -90.326400 0.894073 -69.942300 5.348090 -0.000007 -0.000001 -37.715700 -29.414400 -39.473300 24.328600 0.000019 0.000005 1.652620 34.552800 -2.912020 22.291600 -0.000001 0.000005 0.097301 4.613740 14.675000 12.994500 -0.242716 -4.980390 90.904300 -2.785350 -72.005600 -5.348130 -0.000001 -0.000004 -43.617300 -29.046400 -36.652000 -24.328900 0.000322 -0.000009 -0.001036 5.740110 0.000019 -22.291500 -0.000108 -0.000004 -1.929270 5.066480 5.873150 -2.192480 -6.469440 -0.000000 -174.049000 -7.558960 -0.021172 39.081100 -0.000007 -0.000012 0.014188 -0.058125 13.717700 40.985400 -0.000006 -0.000013 -0.530598 14.184800 -68.681700 11.754300 -0.000000 0.000003 -0.003654 0.215421 -7.834670 -2.192510 6.469440 -0.000001 176.128000 10.434900 -177.795000 -39.081100 -0.002282 -0.040193 0.005318 -0.010769 10.419300 -40.985400 0.000008 0.000006 -7.091940 7.540010 -67.168600 -11.754300 -0.000006 -0.000006 -0.011888 0.284907 -4.994290
